<?xml version="1.0" encoding="UTF-8"?>
<svg id="_图层_1" data-name="图层 1" xmlns="http://www.w3.org/2000/svg" viewBox="0 0 500 500">
  <defs>
    <style>
      .cls-1, .cls-2 {
        fill: #003f87;
      }

      .cls-2 {
        fill-rule: evenodd;
      }
    </style>
  </defs>
  <path class="cls-1" d="M250,0c137.7,0,250,112.31,250,250s-112.3,250-250,250S0,387.69,0,250,112.31,0,250,0M250,9.98C117.79,9.98,9.97,117.79,9.97,250s107.82,240.03,240.03,240.03,240.03-107.83,240.03-240.03S382.21,9.98,250,9.98"/>
  <path class="cls-1" d="M162.18,356.55c-15.64-12.94-28.44-29.23-37.2-47.78-8.44-17.86-13.16-37.78-13.16-58.78,0-76.1,62.08-138.18,138.17-138.18s138.18,62.07,138.18,138.18c0,21-4.74,40.91-13.18,58.78-8.77,18.54-21.55,34.83-37.19,47.78l-3.17-3.84c15.1-12.47,27.42-28.19,35.88-46.07,8.12-17.19,12.68-36.41,12.68-56.65,0-73.36-59.83-133.2-133.19-133.2s-133.18,59.84-133.18,133.2c0,20.24,4.55,39.45,12.67,56.65,8.45,17.88,20.77,33.6,35.88,46.07l-3.17,3.84Z"/>
  <polygon class="cls-2" points="35.91 333.46 26.49 308.16 31.64 306.37 74.86 312.95 68.25 295.22 73.38 293.42 82.02 316.59 76.86 318.37 33.66 311.8 41.05 331.65 35.91 333.46"/>
  <polygon class="cls-2" points="52.37 367.94 49.77 362.9 70.09 352.44 63.64 339.91 43.33 350.35 40.72 345.31 84.16 322.96 86.76 328.01 68.47 337.43 74.9 349.95 93.21 340.55 95.81 345.6 52.37 367.94"/>
  <polygon class="cls-2" points="72.97 395.46 57.53 373.91 98.26 348.6 112.97 369.11 108.45 371.91 97.24 356.28 84.6 364.13 94.9 378.49 90.37 381.3 80.08 366.93 65.54 375.96 77.5 392.66 72.97 395.46"/>
  <polygon class="cls-2" points="107.6 429.35 102.44 424.98 132.42 388.14 137.59 392.5 107.6 429.35"/>
  <path class="cls-2" d="M130.83,445.57l6.14-13.05-7.46-5.4-11.07,10.79-5.09-3.92,35.17-34.72,7.05,4.3-18.71,45.41-6.04-3.4ZM139.81,426.14l7.33-16.85-.68-.56-12.67,12.91,6.01,4.5Z"/>
  <polygon class="cls-2" points="166.07 462.61 159.72 459.64 163.43 425.77 149.53 454.26 143.2 451.34 165.23 407.72 170.97 410.36 168.3 442.57 182.62 415.98 187.95 418.18 166.07 462.61"/>
  <path class="cls-2" d="M198.86,472.4l-4.1-1.35.38-3.84c-.94.84-2.22,1.36-3.79,1.59-1.59.26-3.17.11-4.78-.42-3.39-1.1-5.88-3.74-7.5-7.96-1.64-4.2-1.3-10.02.97-17.39,2.48-8.06,5.55-13.67,9.17-16.84,3.62-3.14,9.14-4.89,14.02-3.34,5.25,1.68,8.65,8.14,7.16,17.08l-6.27-.52c1.07-3.82.52-9.79-3.22-11.01-3.03-.98-6.42-.05-8.59,2.37-2.15,2.4-4.26,6.95-6.32,13.66-1.96,6.34-2.51,10.97-1.64,13.89.86,2.93,2.35,4.74,4.45,5.42,2.09.68,3.98.39,5.69-.85,1.71-1.2,3.1-3.58,4.15-6.99l.88-2.84-7.51-2.42,1.53-4.88,12.3,4-6.98,22.66Z"/>
  <path class="cls-2" d="M263.86,461.63c-.14,4.39-1.32,7.85-3.52,10.34-2.2,2.47-5.59,3.63-10.19,3.45-4.58-.16-7.91-1.57-9.95-4.22-2.02-2.65-2.98-6.16-2.84-10.57l1.09-33.29,5.85.24-1.08,33.27c-.1,3.14.52,5.45,1.83,6.96,1.31,1.53,3.07,2.32,5.28,2.42,2.2.08,4.02-.61,5.42-2.02,1.4-1.42,2.16-3.68,2.26-6.8l1.08-33.26,5.86.21-1.08,33.28Z"/>
  <polygon class="cls-2" points="297.22 470.51 291.99 471.31 275.5 439.54 278.01 473.65 271.79 474.54 268.16 426.72 275.31 426.05 288.91 448.32 286.38 424.36 291.57 423.46 297.22 470.51"/>
  <polygon class="cls-2" points="315.07 465.51 308.95 467.36 296.2 422.12 302.33 420.24 315.07 465.51"/>
  <polygon class="cls-2" points="331.62 408.14 339.36 458.12 333.32 461.09 306.85 418.68 312.66 416.22 331.07 445.16 325.97 410.6 331.62 408.14"/>
  <polygon class="cls-2" points="380.78 436.47 358.44 448.55 334.12 406.78 355.36 395.31 358.06 399.94 341.85 408.71 349.39 421.65 364.29 413.61 366.99 418.24 352.09 426.29 360.77 441.2 378.07 431.83 380.78 436.47"/>
  <path class="cls-2" d="M406.22,418.63l-4.91,4.2-17.3-14.34-4.48,4.05,11.7,15.91-4.91,5.13-28.64-40.22,9.13-6.54c2.91-2.1,6.76-3.59,10.22-3.18,8.92,1.06,12.73,7.07,12.33,14.06-.13,2.22-.26,4.35-1.13,6.56l18,14.36ZM375.35,390.3c-3.63-.99-6.52,1.81-9.13,3.85l9.52,12.59c2.92-2.1,4.27-2.55,6.47-6.34.95-4.57-1.09-8.53-6.86-10.09"/>
  <path class="cls-2" d="M421.67,379.78c9.99,6.03,7.66,23.04-5.46,25.03-3.54.53-7.69-.54-9.47-1.66l2.24-5.09c2.17.48,4.35,1.25,6.42.87,8.52-1.61,8.14-10.45,3.18-14.12-1.73-1.29-4.19-1.44-6.25-1.2-5.73.62-9.42,4.91-15.8,5.31-6.97.43-11.84-3.82-12.99-10.63-.6-3.59.26-7.07,2.05-9.88,3.69-5.79,11.53-6.58,17.24-3.2l-2.22,5.25c-3.09-1.64-8.58-1.64-10.62,1.6-1.09,1.68-1.46,3.4-1.13,5.18.72,3.84,3.33,6.07,7.03,5.61,6.2-.76,10.39-5.86,16.49-5.65,2.89.1,6.35.82,9.28,2.58"/>
  <polygon class="cls-2" points="442.74 373.59 439.15 378.01 397.97 352.17 401.56 347.77 442.74 373.59"/>
  <polygon class="cls-2" points="421.95 321.5 417.4 329.96 456.29 352.83 453.68 357.68 414.78 334.81 410.22 343.25 405.37 340.39 417.09 318.64 421.95 321.5"/>
  <polygon class="cls-2" points="429.08 289.37 452.81 310.57 468.65 317.36 466.73 322.7 452.05 317.01 418.25 316.24 419.89 310.82 443.47 311.2 426.76 295.85 429.08 289.37"/>
  <path class="cls-2" d="M103.97,408.06c-4.2,4.18-8.1,6.34-11.75,6.47-3.63.12-6.92-1.33-9.88-4.35-2.69-2.75-4.03-5.93-4-9.59.01-1.86.56-3.76,1.62-5.72l5.35,3.27c-.47.92-.7,1.79-.72,2.65-.05,1.98.55,3.65,1.83,4.95,1.81,1.83,3.71,2.67,5.68,2.5,1.99-.18,4.41-1.65,7.23-4.49l23.76-23.52,4.44,4.5-23.55,23.31Z"/>
  <path class="cls-2" d="M184.76,399.83l-16.64-10.32,1.51-2.61,6.19,3.83,9.9-17.24-6.19-3.84,1.34-2.33c2.35,1.45,4.21,2.26,5.6,2.43,1.39.21,2.56-.35,3.5-1.66l3.56,2.2-13.3,23.17,6.03,3.74-1.5,2.62ZM234.4,389.32c.27-1.33-.19-2.52-1.38-3.61-1.2-1.07-3.03-1.77-5.46-2.11-2.22-.31-4.14-.16-5.72.42-1.59.59-2.51,1.56-2.78,2.92-.2.97,0,1.85.6,2.61.57.77,1.53,1.55,2.89,2.28.57.31,1.47.78,2.69,1.34,1.23.58,2.35,1.03,3.39,1.43,1.95-.64,3.33-1.39,4.16-2.24.83-.84,1.36-1.86,1.61-3.05M232.24,404.22c.24-1.21.09-2.23-.51-3.04-.6-.83-1.88-1.75-3.84-2.78-.64-.34-1.51-.73-2.61-1.19-1.09-.45-2.34-.98-3.7-1.58-1.85.49-3.32,1.18-4.45,2.15-1.1.93-1.81,2.08-2.09,3.44-.37,1.8.18,3.37,1.62,4.76,1.42,1.4,3.4,2.26,5.92,2.63,2.57.35,4.74.13,6.5-.65,1.76-.78,2.82-2.04,3.16-3.75M221.92,411.55c-2.26-.31-4.3-.81-6.07-1.52-1.78-.7-3.24-1.54-4.38-2.53-1.12-.98-1.89-2.07-2.37-3.25-.42-1.17-.51-2.37-.29-3.61.33-1.59,1.3-2.97,2.9-4.13,1.57-1.16,3.71-1.94,6.38-2.4l.04-.12c-2.08-1.16-3.55-2.31-4.45-3.47-.88-1.16-1.15-2.48-.85-3.99.43-2.23,2.11-3.89,5.02-5.02,2.9-1.12,6.34-1.4,10.32-.85,4.17.58,7.36,1.74,9.57,3.5,2.22,1.74,3.11,3.73,2.67,5.92-.27,1.33-1.13,2.55-2.6,3.69-1.46,1.12-3.38,1.88-5.8,2.3l-.02.11c2.5,1.19,4.31,2.45,5.45,3.79,1.14,1.33,1.54,2.92,1.17,4.72-.52,2.53-2.36,4.44-5.54,5.76-3.2,1.31-6.9,1.67-11.16,1.08M279.51,393.3c0-2.04-.27-3.7-.83-4.97-.58-1.28-1.34-2.26-2.34-2.96-.87-.65-1.77-1.08-2.69-1.34-.9-.22-1.89-.35-2.97-.35-2.49,0-4.44.58-5.89,1.77-1.49,1.18-2.2,2.88-2.2,5.11,0,1.26.22,2.31.7,3.13.49.81,1.28,1.52,2.36,2.1.75.41,1.63.69,2.59.84.96.15,2,.21,3.09.21,1.29,0,2.68-.14,4.16-.44,1.49-.3,2.78-.71,3.88-1.2.02-.2.07-.47.08-.79.03-.33.05-.7.05-1.11M256.46,390.73c0-1.55.38-2.96,1.12-4.22.77-1.28,1.8-2.38,3.1-3.31,1.25-.87,2.77-1.58,4.56-2.06,1.8-.5,3.62-.75,5.48-.75,2.06,0,3.95.25,5.61.7,1.68.46,3.12,1.13,4.36,2,1.56,1.1,2.74,2.53,3.6,4.3.84,1.78,1.28,4.05,1.28,6.77,0,2.47-.43,4.82-1.26,7.04-.84,2.22-2.05,4.06-3.68,5.53-1.73,1.56-3.82,2.74-6.23,3.56-2.43.8-5.42,1.22-8.97,1.22-.8,0-1.66-.04-2.56-.07-.9-.08-1.75-.19-2.54-.34v-3.85h.32c.5.2,1.28.39,2.35.55,1.05.18,2.14.26,3.24.26,3.94,0,7.04-.85,9.29-2.59,2.23-1.73,3.52-4.19,3.81-7.41-1.6.73-3.14,1.25-4.58,1.6-1.46.33-3.04.5-4.77.5s-3.17-.12-4.54-.36c-1.37-.24-2.74-.71-4.12-1.41-1.64-.8-2.83-1.84-3.66-3.1-.82-1.25-1.24-2.76-1.24-4.53M321.72,365.15l-1.1,30.86-4.72,2.98.41-29.17-18.02,8.75-1.58-3.47,22.65-11.78,2.35,1.83Z"/>
  <g>
    <path class="cls-2" d="M331.56,115.48c-3.63-1.75-1.06-2.39-.86-5.8.17-2.93-1.71-6.3-1.13-8.38,1.58-5.56,8.71-3.45,12.63-.59.69.5,1.33,1.88,1.85,3.25,1.27,3.38,2.61,8.14-1.27,10.55-3.35,2.09-8.09,2.48-11.22.96"/>
    <path class="cls-2" d="M289.6,99.05c-.11-.08-.23-.17-.33-.25.13-.43.26-.84.38-1.2,1.29-.15,13.32-4.4,13.36-4.68,3.65-1.66,6.97-3.69,8.79-7.35-8.03.59-16.39,4.31-24.22,3-3.38-1.76-5.34-4.29-7.58-5.99.03-.17.06-.3.08-.42-3.43-3.66-2.95-7.16,1.9-7.56,7.32,3.63,20.53.98,28.52,0,1.82-.34,6.94-.86,8.59-2.05,4.21-9.8,5.6-20.33,8.57-29.97,4.23-6.46,7.46-.58,10.98,4.03.14.65.99,1.55,1.56,3.1.13.02.23.04.41.08,1.14,3.39,1.33,4.86-2.23,6.93-3.1,4.31-5.34,9.4-6.46,15.02,5.5.55,9.87-3.32,16.05-1.92.78,3.24.01,5.62-3.29,7.32-5.03,1.06-10.39,1.81-16.05,2.88-2.44,4.88-6.04,10.69-10.7,14.01-.67.5-3.91,2.29-4.63,2.51-3.77,1.11-7.31,2.71-11.17,2.85-10.69.35-10.69-.15-12.54-.33"/>
  </g>
  <g>
    <path class="cls-2" d="M167.81,134.65c-4.44-.25-9.62-3.46-12.76-5.49-.05-1.13-.13-2.28-.08-3.39,6.24-10.1,12.58-19.73,17.5-30.77.95-4.7,2.57-9.86,3.74-14.57.07-.12.22-.26.39-.33-.08-.17-.14-.27-.18-.39,1.57-2.64,2.33-3.49,5.4-1.36,1.1,2.37-2.23,6.68-2.7,9.48,0,5.01-.19,10.17-.66,15.45q-.38,1.07-1.39,6.82c-1.68,2.75-2.93,8.86-3.12,12.28-2.15,2.72-1.4,8.13-4.1,11.17-.73.34-1.39.72-2.03,1.09"/>
    <path class="cls-2" d="M207.85,83.05c-5.54,1.9-8.47-.98-12.69-2.98-.67-1.42-.13-2.62-.4-3.65q1.24-.86,1.87-1.71c2.17-1.2,3.04-1.42,5.47-2.54,2.84-1.95,8.73-10.66,12.36-9.34,3.01,6.46-1.59,16.01-6.6,20.22"/>
    <path class="cls-2" d="M161.8,89.06c-2.8-1.01-6.53-9.27-7.74-11.88-.31-5.33,4.36-7.36,9.52-5.86,4.77,2.91,7.59,3.78,6.19,9.91-2.44,4.7-4.04,5.58-7.98,7.83"/>
    <path class="cls-2" d="M200.64,69.06c-1.57-2.33-.2-9.21-1.72-10.15-1.25.73-2.42,1.76-3.77,2.38-3.91-.3-9.09-2.88-8.98-6.49,1.35-3.71.68-2.65,4.38-4.38,2.97-3.02,5.97-6,9.02-9.02,5.69-3.53,9.82-1.29,12.55,4.57.44,4.31-.94,8.38-2.28,12.44-2.55,3.04-4.72,6.16-6.93,9.26-.81.45-1.55.93-2.28,1.39"/>
    <path class="cls-2" d="M160.3,64.88c-1.73-.62-1.43-1.46-1.19-2.86-1.16-2.47-3.48-3.91-4.58-6.28-.94-4.77-2.43-6.07.41-9.65,3.37.13,15.36,1.31,15.17,7.85-1.35,4.54-6.03,8.91-9.82,10.94"/>
  </g>
  <path class="cls-2" d="M98.84,229.68c-5.18,3.58-17.67,1.22-16.02-6.25-.72-.72-1.11-2.04-.86-2.9-.16-.1-.28-.16-.38-.21-1.32-7.83-5.55-15.28-7.85-22.66-1.21-2.33-2.66-4.13-1.73-6.67,1.73-.43,3.63,1.43,5.08,2.87.76-.18,1.61-2.07,1.98-3.3-.57-5.18-.14-11.15-.87-16.44-1.34-1.14-2.66-2.33-3.91-3.51-1.02,2.67-4.41,11.34-7.37,6.66.81-3.56,1.32-9.47-.68-13.06-2.57-2.81-6.26-4.75-7.4-7.81.53-4.27,7.05-5.26,10.88-3.57,3.09.26,3.04-5.55,6.54,4.06.08,1.57,1.59,2.55,3.31,3.43.28-.34.56-.67.83-1.03-.08-4.09-.15-8.55.21-12.91-3.83-3.86-7.05-7.09-9.31-11.78,0-4.49,5.09-7.08,9.52-8.41,1.43-2.41,1.45-4.49,1.36-7.58q.3-.99,1.36-2.52c1.53.12,2.78.67,4.5,1.67,3.5,4.56-3.88,18.45,3.05,19.56,1.4-2.34-.54-4.81-1.59-6.75.4-3.46,5.73-7.78,9.48-9.1,5.56-.49,5.22,2.64,5.25,7.42.26.66.52,1.33.81,1.93q7.04,5.14,16.85,11.75c1.86,2.93,2.59,4.6,3.34,8.09.11.05.22.12.32.19-.08.17-.16.26-.22.37,1.32,2.74,1.38,7.26-1.92,7.68-8.02-5.45-15.99-11.61-23.81-16.58-.08.16-.14.35-.15.5,3.5,3.26,8.14,12.17,8.26,17.17-1.92,3.21-5.47,4.53-8.69,3.64-.57-.86-.35-1.59-.46-2.6-2.36-4.17-9.25-8.15-12.75-10.53-1.34,2.74,1.39,10.84,2.23,14.15.14,1.95.26,3.93.42,5.84,2.37,2.93,4.82,5.61,7.46,8.58.96,1.66,1.96,3.34,2.98,5.05-.08.16-.16.26-.2.37,1.15,2.5,3.71,9.84-1.07,9.86-.47-.28-.89-.55-1.3-.85-1.5-3.79-4.39-7.9-7.53-10.15-1.11,3.75.31,7.71-1.61,10.89-1.57,1.53-3.34,2.92-4.74,3.69-.16-.1-.25-.16-.38-.21-.97.42-2.17.71-2.3,1.28,1.35,1.75,2.75,3.53,4.17,5.26,4.43,7.72,9.34,14.48,15.19,21.53.36,1.95.26,2.47-.28,3.88"/>
  <path class="cls-2" d="M64.9,197.5c-2.03,0-3.05-2.4-4.61-3.55-5.55-1.59-9.74-2.71-11.57-8.23.24-.51.52-1,.8-1.48,2.91-1.07,8.29-1.74,11.92-1.9,6.91,1.53,4.55,10.19,3.45,15.16"/>
  <path class="cls-2" d="M50.38,181.15c-1.18.87-1.4.67-1.96.62-.74-1.3-1.02-2.27-2.31-2.81-6.14-.15-12.49-4.75-11.35-11,1.11-1.27,2.32-.5,4.66.19,5.18-1.03,12.9-4.25,13.21,4.05-.54,3.01-1.48,6.08-2.26,8.95"/>
  <path class="cls-1" d="M367.36,189.03l-60.79-.05c-17.72,0-26.83,17.38-33.56,33.12l-10.24-23.06,17.21-6.36c-10.07-9.54-41.45-14.73-45.59-.38l-7.39,29.77c-5.86-13.42-14.09-33.04-32.68-33.05h-61.68c8.02,14.19,15.68,19.29,44.05,18.08l3.71,9.77-31.11.16c9.18,16.93,14.49,17.64,39.53,16.93l5.3,11.69-24.46.88c5.26,11.96,10.77,17.09,31.78,16.13l4.1,10.37-19.47.11c7.31,12.05,10.92,17.58,26.35,16.23l4.15,11.29h-13.49c5.83,13.02,12.61,13.56,20.9,14.86,7.45,1.15,8.51,15.1-.17,19.58l26.17,42.48,26.19-42.49c-8.71-4.48-7.62-18.43-.17-19.58,8.29-1.3,15.07-1.83,20.88-14.87h-13.46l4.13-11.3c15.41,1.36,19.03-4.17,26.34-16.21l-19.46-.12,4.09-10.38c21,.98,26.53-4.17,31.78-16.13l-24.46-.86,5.3-11.69c25.04.69,30.34,0,39.53-16.96l-31.12-.13,3.73-9.8c28.35,1.23,36.02-3.88,44.06-18.05"/>
  <path class="cls-1" d="M459.95,159.93l.22-.54c.88-2.18.83-3.09.63-3.45-.27-.52-1.23-.79-2.75-1.18-.4-.1-.87-.18-1.39-.25l-.85-.13-.27-.61c-.3-.31-.6-.63-.97-.91l-1.17-.4-.27-.13,1.52-1.15c1.08-.82,2.29-1.21,3.65-1.65l.14-.35.59.23c2.15-1.86,3.57-4.59,3.77-7.42-.66-.9-1.75-1.31-3.42-1.31-2.14.04-4.74.85-7.05,1.57-1.43.44-3.18,1.01-4.73,1.3l-.54-.26c-3.9-1.87-4.05-1.94-12.18-6.22-.57.39-1.04.95-1.3,1.63-.49,1.17-.41,2.48.22,3.74l.75.6.07.06v.02s-1.91,1.02-1.91,1.02c-.44.24-.54.3-.49.3h.03l-.56.51c.06.21.18.58.48,1.09l.14.86c-.03.75-.17,1.06-.79,1.78l-.23.92-.05.11h-.01s-1.19-.93-1.19-.93c-1.54-1.22-1.69-1.35-2.85-2.42-.31-.06-.61-.09-.97-.09-.88.03-1.59.31-1.91.74-.33.47-.28,1.09.07,1.95l-.12.45c-.27,1.16-1.25,3.14-4.86,3.19l-1.87-.03c-.35,0-.71.02-1.29.29-.02,2.45,1.06,2.64,3.65,3.04.97.15,2.02.31,3.4.64.25-.1.49-.13.73-.13.55,0,.98.23,1.5.47l1.94.76.68.19.32.15-2.35,1.15c-.89.44-1.49.76-2.37,1.69-.17.67-.51,1.33-1.06,1.98l-.09.53-.97-.22c-1.74-.43-3.48-.88-5.23-1.32l-2.68-.71c-4.77-1.25-10.7-2.81-16.27-3.78-1.33-.47-2.6-.72-3.89-.95l-2.64-.31-.12.76c.65.51,1.51,1.15,2.85,1.99l.18.44c.75,1.82,2,4.12,4.91,5.74,1.91.33,3.92.56,6.3.83,6.96.81,14.14,1.63,19.8,5.87l1.47.76.37-.02.07.02h0s-2.09,1.06-2.09,1.06c-.52.27-1.01.55-1.65,1.13l-.64-.13q-6.71-1.48-9.12-2.25c-2.41-1.55-3.59-2.04-4.87-2.04-.97.01-2.11.43-4.04,1.56-.12.06-.18.08-.3.15l-.1.08c-.06.04-.11.07-.18.11l-.68-.26c-.74-.27-.78-.28-2.78-.57-1.86-.66-3.78-1.28-5.83-1.96-5.78-1.89-11.78-3.85-16.76-7.14-1.47-1.23-2.44-2.36-3.25-3.31-.26-.31-.45-.51-.6-.51-.02,0-.06,0-.07,0l-.48-.62c-.38.12-.99.67-1.99,1.76-1.06,3.29,1.91,11.14,4.58,13.44,1.88.82,3.87,1.2,6,1.6,3.52.66,7.17,1.35,10.64,4.25l.93.23.08.03h0s-.89,1.21-.89,1.21c-1.15,1.49-2.47,2.74-3.98,4.11l-.68.58c-.45.36-.89.73-1.19,1.12l-.68.06c-.48.08-.93.13-1.52.15-2.59,0-4.81-1.25-6.77-2.34-.64-.35-1.27-.7-2.17-.91l-.36.66c2.69,4.62,6.39,8.87,11.28,12.93l.41.68c.59.32,1.19.48,1.82.48h.09c3.51-.07,7.32-4.9,10.12-8.44.61-.77,1.17-1.47,1.8-2.15l.69-.52c2.65-1.95,2.84-2.11,2.74-2.14l.65.18c2.24.61,3.67,1.47,5.8,2.66,2.09-.9,4.22-3.03,4.03-5.3l-.86-.79c-1.25-1.16-2.5-2.31-3.8-3.46l-.66-.13.43-1.08c.47-1.12,1.15-1.79,2.06-2.71l.09-.44.89.21c3.77.86,7.14,1.9,11.27,3.18l3.61,1.18.89.67c2.08,1.54,3.57,2.67,5.92,2.67.38,0,.71-.04,1.32-.23,2.23-2.28,3.48-3.81,4.37-5.58h0c.02-.06.05-.1.08-.14-.69-1.01-1-1.3-1.13-1.31l.66-.78c.21-.26.44-.44,1.07-.82,6.12-1.94,12.74-4.35,17.61-6.09,2.93-1.85,3.24-2.03,2.2-4.76-.18-.45-.4-.99-.76-1.73M436.17,163.56l.99-.9c1.36-1.25,1.97-1.86,2.11-2.47-.06-.24-.34-.55-.96-.99l-.3-.05c-.19.02-.39.05-.65.05-1.1,0-1.77-.52-2.14-.97l-.45-.35.03-.52.39-1.24-.23-.08,1.34-.43q4.48-1.47,5.22-1.91l.34-.59.87.73c.94.79,4.07,3.66,4.55,7.28l-.44.52c-2.4,2.85-5.62,3.35-8.76,3.46l-.83.2-.43-1.32-.59-.38-.04-.03Z"/>
  <path class="cls-1" d="M410.21,152.83c-1.36,0-2.62-.41-3.78-1.24-.74-2.9,1.43-6.01,3-8.3.55-.77.96-1.37,1.27-1.91l.26-.66.53-1.01c.63-1.23,1.24-2.44,1.84-3.81.22-.71.4-1.37.57-2.02.95-3.78,1.68-6.16,3.59-6.84,1.47.24,2.2.46,2.56.99.36.55.23,1.32-.06,2.75l-.25.53c.21.51.3,1.14.39,1.79.42,2.24.53,4.54.29,6.67l-.11.85c-.13.82-.35,1.52-.59,2.23-.87,2.71-1.85,5.75-3.83,7.54l-.81.74-.53.32c-1.35.88-2.81,1.35-4.22,1.37h-.13Z"/>
  <path class="cls-1" d="M410.21,152.71h.13c1.39-.03,2.82-.5,4.14-1.36l.51-.31.81-.74c1.94-1.77,2.92-4.79,3.78-7.47.24-.72.47-1.41.59-2.23l.11-.84c.26-2.32.1-4.61-.29-6.65-.08-.64-.17-1.28-.27-1.88l-.1.02.26-.48c.27-1.36.41-2.15.07-2.66-.33-.48-1.02-.71-2.42-.96-1.83.68-2.54,2.96-3.43,6.52-.2.74-.39,1.47-.64,2.28-.6,1.38-1.22,2.59-1.85,3.82l-.53.99-.25.69c-.31.54-.73,1.15-1.27,1.9-1.57,2.27-3.71,5.36-3.05,8.13,1.12.81,2.36,1.22,3.7,1.22"/>
  <path class="cls-1" d="M396.8,149.39c-.67,0-1.52-.38-3.06-1.36-2.05-4.65,5.3-9.88,6.15-10.46,1.2.28,1.88.92,2.29,2.06.84,2.34.23,5.65-1.36,7.57-2.24,1.54-3.16,2.16-4,2.19h-.03Z"/>
  <path class="cls-1" d="M396.8,149.26h.03c.8-.02,1.73-.64,3.89-2.14,1.57-1.87,2.15-5.14,1.34-7.42-.39-1.09-1.02-1.73-2.09-2.02-.84.59-8.11,5.79-6.15,10.26,1.51.96,2.35,1.33,2.98,1.33"/>
</svg>